<mxfile host="app.diagrams.net" modified="2024-03-05T08:34:12.126Z" agent="Mozilla/5.0 (Windows NT 10.0; Win64; x64) AppleWebKit/537.36 (KHTML, like Gecko) Chrome/122.0.0.0 Safari/537.36" version="24.0.1" etag="fiLeKH07vO9wUgCK5z9l" type="github">
  <diagram name="Page-1" id="E0hvyntQo3ANT3jGOCte">
    <mxGraphModel>
      <root>
        <mxCell id="0" />
        <mxCell id="1" parent="0" />
      </root>
    </mxGraphModel>
  </diagram>
</mxfile>
